<svg width="20" height="22" viewBox="0 0 20 22" fill="none" xmlns="http://www.w3.org/2000/svg">
<path fill-rule="evenodd" clip-rule="evenodd" d="M4.732 13.487C5.193 13.487 5.567 13.866 5.567 14.336C5.567 14.632 5.418 14.892 5.191 15.044C3.256 16.431 1.92 18.625 1.676 21.15L1.677 21.151C1.677 21.62 1.303 22 0.842 22C0.38 22 0.007 21.62 0.007 21.151L0 21.155C0.247 18.056 1.863 15.357 4.227 13.663C4.368 13.554 4.542 13.487 4.732 13.487ZM19.986 21.151L20 21.304C19.996 21.257 19.989 21.211 19.985 21.163C19.977 21.626 19.608 22 19.151 22C18.69 22 18.316 21.619 18.316 21.151H18.314C17.899 16.85 14.336 13.489 10 13.487L9.996 13.486C9.988 13.486 9.981 13.487 9.973 13.487C6.312 13.487 3.344 10.467 3.344 6.743C3.344 3.019 6.312 0 9.973 0C9.977 0 9.981 0.001 9.984 0.001C9.988 0.001 9.992 0 9.996 0C13.655 0 16.622 3.018 16.622 6.741C16.622 8.134 16.196 9.419 15.483 10.492C15.476 10.503 15.469 10.513 15.462 10.524C15.358 10.679 15.248 10.829 15.131 10.974C15.091 11.025 15.049 11.073 15.008 11.123C14.902 11.247 14.796 11.371 14.681 11.488C14.598 11.574 14.508 11.653 14.42 11.734C14.291 11.853 14.158 11.969 14.018 12.078C13.878 12.187 13.738 12.293 13.589 12.391C13.563 12.408 13.54 12.43 13.513 12.446C17.012 13.782 19.577 17.044 19.964 20.965C19.977 21.025 19.986 21.087 19.986 21.151ZM9.996 11.784C10.163 11.784 10.328 11.775 10.492 11.758C12.986 11.494 14.93 9.35 14.93 6.743C14.93 3.958 12.711 1.701 9.973 1.701C9.806 1.701 9.64 1.71 9.477 1.726C6.983 1.99 5.038 4.134 5.038 6.741C5.038 9.526 7.257 11.784 9.996 11.784Z" fill="white"/>
</svg>
